<?xml version="1.0" encoding="UTF-8"?><svg id="a" xmlns="http://www.w3.org/2000/svg" viewBox="0 0 120 86"><defs><style>.b{fill:#fff;}</style></defs><path class="b" d="M60.49-.29c15.44,0,30.89,0,46.33,0,6.48,0,11.78,4.39,12.98,10.77,.13,.7,.2,1.41,.2,2.12,0,20.12,0,40.23,0,60.35,0,6.39-4.92,11.92-11.27,12.71-.73,.09-1.46,.11-2.19,.11-17.29,0-34.57,0-51.86,0-10.04,0-20.07-.03-30.11,.03-3.77,.02-7.54,.05-11.31,.05-3.74,0-6.97-1.31-9.57-4.03C1.18,79.19,.02,76.02,.02,72.4c0-10.12,0-20.24-.01-30.36C0,32.32,0,22.6,0,12.87,0,6.24,4.76,.78,11.34-.12c.85-.12,1.71-.14,2.57-.14,15.53,0,31.05,0,46.58,0v-.03Zm-21.85,6.18h0c-8.49,.01-16.97,.01-25.46,.01-3.04,0-5.18,1.39-6.48,4.12-.56,1.18-.54,1.2,.54,1.97,7.45,5.28,14.89,10.58,22.36,15.84,7.11,5.01,14.21,10.02,21.47,14.82,1.24,.82,2.47,1.67,3.91,2.11,4.72,1.45,9.2,1.27,13.44-1.64,4.77-3.27,9.54-6.53,14.28-9.85,10.1-7.08,20.15-14.25,30.19-21.43,.9-.65,.92-.72,.49-1.75-1.12-2.68-3.59-4.29-6.59-4.28-22.11,.02-44.21,.05-66.32,.08-.61,0-1.22,0-1.82,0Zm21.28,73.81v-.02c3.29,0,6.58,0,9.87,0,12.4,0,24.81,0,37.21,0,3.03,0,5.61-1.86,6.57-4.67,.17-.51,.12-.82-.35-1.15-4.45-3.14-8.88-6.31-13.32-9.46-8.26-5.85-16.53-11.68-24.86-17.42-.53-.37-.89-.39-1.44-.02-1.7,1.15-3.34,2.42-5.24,3.22-5.32,2.23-10.69,2.12-16.05,.13-2.12-.79-3.95-2.11-5.8-3.38-.58-.4-.96-.4-1.53,0-3.24,2.31-6.52,4.57-9.77,6.86-9.45,6.63-18.84,13.34-28.24,20.04-.56,.4-.62,.76-.41,1.35,.84,2.43,3.44,4.55,6.59,4.54,15.59-.04,31.18-.02,46.77-.02ZM113.89,18.75c-.35,.05-.51,.22-.69,.35-1.25,.88-2.49,1.78-3.74,2.66-9.69,6.91-19.38,13.82-29.16,20.6q-.61,.43-.02,.84c11.02,7.6,21.94,15.34,32.85,23.11,.21,.15,.43,.47,.68,.34,.2-.11,.08-.47,.08-.71,0-15.5,0-31.01-.01-46.51,0-.21,0-.41,0-.67Zm-107.8-.11c0,.38,0,.6,0,.83,0,2.93,.05,5.86,.06,8.8,.04,12.59,.02,25.19,.03,37.78,0,.22-.12,.52,.11,.64,.23,.11,.41-.16,.59-.28,3.12-2.22,6.24-4.45,9.36-6.68,7.8-5.56,15.61-11.09,23.48-16.55,.62-.43,.62-.42,0-.85-9.65-6.64-19.2-13.42-28.74-20.2-1.59-1.13-3.17-2.26-4.89-3.48Z"/></svg>