<?xml version="1.0" encoding="UTF-8"?><svg id="a" xmlns="http://www.w3.org/2000/svg" viewBox="0 0 92 91"><defs><style>.b{fill:#fff;}</style></defs><path class="b" d="M81.88,90.6H9.51c-4.91,0-8.91-4-8.91-8.91V9.32C.6,4.41,4.6,.41,9.51,.41H81.88c4.91,0,8.91,4,8.91,8.91V81.69c0,4.91-4,8.91-8.91,8.91ZM9.51,6.41c-1.6,0-2.91,1.3-2.91,2.91V81.69c0,1.6,1.3,2.91,2.91,2.91H81.88c1.6,0,2.91-1.3,2.91-2.91V9.32c0-1.6-1.3-2.91-2.91-2.91H9.51Z"/><g><path class="b" d="M29.08,74.09c0,.68-.01,.7-.71,.7-3.58,0-7.16,0-10.75,0-.68,0-.68,0-.68-.67,0-6.37,0-12.73,0-19.1,0-6.34,0-12.67,0-19.01q0-.76,.78-.76c3.55,0,7.11,0,10.66,0,.7,0,.7,0,.7,.7,0,12.72,0,25.44,0,38.16Z"/><path class="b" d="M22.99,29.67c-3.91,0-7.01-3.07-6.99-7.16,.02-3.84,3.16-6.97,7.09-6.94,3.89,0,7.03,3.19,7.02,7.06-.01,3.85-3.11,7.05-7.11,7.04Z"/><path class="b" d="M75.39,55.5c0,6.15,0,12.3,0,18.45,0,.17,0,.35,0,.52,0,.22-.12,.31-.33,.32-.12,0-.23,0-.35,0-3.63,0-7.25,0-10.88,0-.67,0-.67,0-.67-.68,0-6.99,0-13.98,0-20.97,0-1.66-.24-3.3-.89-4.84-.81-1.92-2.31-3-4.39-3.28-1.58-.21-3.11,0-4.61,.54-.97,.35-1.72,1.01-2.31,1.82-1.07,1.45-1.48,3.14-1.68,4.9-.13,1.14-.17,2.28-.17,3.42,0,6.12,0,12.24,0,18.36q0,.73-.75,.73c-3.57,0-7.14,0-10.7,0-.69,0-.69,0-.69-.7,0-6.35,0-12.71,0-19.06,0-6.34,0-12.68,0-19.02q0-.79,.8-.79c3.39,0,6.79,0,10.18,0,.72,0,.73,0,.73,.73,0,1.42,0,2.84,0,4.26,0,.16-.06,.38,.16,.45,.23,.07,.27-.16,.36-.3,.56-.84,1.08-1.72,1.86-2.37,1.08-.91,2.21-1.76,3.51-2.37,1.78-.84,3.64-1.18,5.58-1.28,1.77-.08,3.51,.12,5.24,.48,1.57,.32,3.04,.91,4.32,1.83,1.46,1.05,2.66,2.35,3.46,4.01,.41,.85,.82,1.7,1.07,2.6,.31,1.08,.54,2.19,.72,3.3,.49,2.96,.44,5.94,.44,8.92Z"/></g></svg>