<?xml version="1.0" encoding="utf-8"?>
<!-- Generator: Adobe Illustrator 26.1.0, SVG Export Plug-In . SVG Version: 6.00 Build 0)  -->
<svg version="1.1" id="Layer_1" xmlns="http://www.w3.org/2000/svg" xmlns:xlink="http://www.w3.org/1999/xlink" x="0px" y="0px"
	 viewBox="0 0 1417 987.3" style="enable-background:new 0 0 1417 987.3;" xml:space="preserve">
<style type="text/css">
	.st0{fill:#FFFFFF;}
	.st1{fill:#E2CFCF;}
</style>
<path class="st0" d="M1299,372.1c-22.2-21.2-21.9-53.1,0.4-76.5c22.4-23.5,54.2-25.2,76.4-4c22,21,21.8,52.8-0.6,76.3
	C1353,391.3,1321.1,393.1,1299,372.1 M1288.7,382.9c29.4,28.1,71.6,27.4,99.9-2.2s27-71.8-2.5-99.9c-29.6-28.3-71.8-27.6-100,2
	C1257.8,312.5,1259.1,354.6,1288.7,382.9 M1168.1,283.1l14.6,10.2l76.5-109.4l-14.6-10.2L1168.1,283.1z M1041.6,216l72.4,35.8
	l6.6-13.4l-56.4-27.9l52.5-106.3l-16-7.9L1041.6,216z M911.3,164.4c-29.8-7.5-45.1-35.5-37.2-66.8c8-31.5,34.8-48.6,64.6-41
	c29.5,7.5,45,35.3,37,66.8C967.7,154.6,940.8,171.9,911.3,164.4 M907.6,178.8c39.5,10,75.8-11.3,85.9-51
	c10.1-39.7-11.8-75.7-51.2-85.7C902.6,32,866.2,53.3,856.2,93C846.1,132.7,868,168.8,907.6,178.8 M704.3,153.3l17.8,0.8l2.7-62.9
	l51.8,2.2l0.6-14.9l-51.8-2.2l1.7-40.7l62.9,2.7l0.6-14.9L710,20L704.3,153.3z M577.3,168.1l17.6-2.6L577.4,48.2l46.9-7L622,26.4
	L510.7,43.1l2.2,14.7l46.9-7L577.3,168.1z M389.4,149.6l-16.2-45.7l24.7-8.8c18.9-6.7,28.5,2.6,32.6,14.2
	c4.1,11.5,2.4,24.9-16.4,31.5L389.4,149.6z M483.1,192.4c3.8-1.3,7.4-3.1,11-5.6l-4.2-11.7c-2.3,1.5-4.5,2.6-6.8,3.4
	c-9.4,3.3-17.5,1.9-29.6-8.2L429.4,150c18.7-9.7,24.4-27.7,17.7-46.6c-7.2-20.3-25.4-32.5-54.2-22.4l-41.5,14.7L396,221.6l16.8-5.9
	l-18.4-52l18.2-6.5l27.2,24.1C454.6,194.5,468.9,197.4,483.1,192.4 M268.5,279.5c-26.2,16-57,7.4-73.8-20.2
	c-16.9-27.7-10.3-58.8,15.9-74.8c26-15.8,56.7-7.4,73.6,20.3C301,232.4,294.5,263.7,268.5,279.5 M276.2,292.3
	c34.8-21.2,45-62.1,23.8-97c-21.3-35-62.3-44.6-97.1-23.4c-35,21.3-45.2,62.2-24,97.1C200.2,303.9,241.3,313.6,276.2,292.3
	 M73.5,369.4L38.1,333L57,314.7c14.4-14,27.8-8.7,36.3,0.1c8.5,8.8,13.4,22.4-1,36.3L73.5,369.4z M108,430.5l12.8-12.4l-36.9-38
	l18.8-18.3c21.9-21.2,18.3-43.8,3.2-59.3c-15-15.5-37.5-19.7-59.3,1.5L15,334.8L108,430.5z"/>
<g>
	<path class="st1" d="M680.6,887.8c-0.6,0.6-0.6,1.3-0.6,1.9l-0.6,0.6c-1.9,3.9-2.6,5.8-3.2,5.8L653.7,927
		c-5.1,7.1-9,10.3-16.7,14.8c-0.6,0.6-2.6,1.3-3.2,1.3c-11.6,7.7-16.7,8.3-25,10.3c-3.2,0-7.1,1.3-10.9,1.9h-6.4
		c-1.9-0.6-3.2-0.6-4.5-0.6c-16.7-2.6-22.5-8.3-32.7-23.7c-0.6-1.3-1.9-3.2-3.2-4.5c-0.6-1.3-5.8-1.9-8.3-1.3
		c-2.6,2.6-4.5,3.9-9.6,7.7l-9,7.1c-1.3,0.6-1.9,0.6-3.2,1.9c-2.6,1.9-5.1,3.9-7.7,4.5c-12.2,7.7-21.8,7.1-33.4-1.9
		c-5.1-3.9-7.1-7.1-6.4-12.2c0-3.9-0.6-7.1-0.6-9.6c-0.6-5.8-0.6-9,1.3-14.8l1.9-6.4c3.2-8.3,4.5-12.2,3.9-17.3
		c-0.6,0-0.6-1.9,1.3-4.5c5.1-8.3,10.3-16.7,14.8-26.3c5.8-9,9.6-11.6,19.9-16.7c1.9-2.6,2.6-3.2,7.1-5.8c1.9-0.6,5.1-1.9,6.4-3.9
		c5.1-3.9,8.3-4.5,13.5-3.9c17.3,2.6,27,9.6,33.4,23.1c0,1.3,1.3,2.6,1.9,3.9c1.3,2.6,1.9,3.9,1.9,7.1c-0.6,3.9-3.2,6.4-5.8,7.1
		c-3.9,0.6-7.1-1.3-7.7-5.1c-0.6-1.9-1.3-3.2-3.2-5.8c-1.3-1.3-1.9-1.9-1.9-3.9c-2.6-7.1-7.1-9.6-16.7-10.3c-10.3,0-18,3.2-23.1,9
		c-1.9,2.6-3.2,3.9-6.4,6.4c-3.2,2.6-6.4,5.8-9,10.3c-1.3,1.9-1.3,2.6-3.2,4.5c-4.5,5.8-5.8,7.7-5.8,11.6c0,1.9-0.6,3.9-1.3,5.1
		c-7.7,10.9-8.3,16.7-8.3,25.7c0,2.6-0.6,5.1-0.6,8.3c0,1.9,0.6,3.9,1.3,7.1c0,1.3,0.6,2.6,0.6,4.5c0.6,5.8,10.3,10.3,16,7.7
		c6.4-3.2,12.8-6.4,16.7-11.6c3.2-5.1,5.8-7.7,9.6-10.9c4.5-3.2,9-7.7,12.8-16.7l2.6-6.4c1.3-1.9,2.6-4.5,3.2-6.4
		c1.9-3.2,4.5-5.1,9.6-7.1c1.3-0.6,4.5,1.9,4.5,3.9c0.6,6.4,1.3,9.6,0,12.2c-3.2,12.8-1.9,23.7,5.1,34c3.2,6.4,10.9,11.6,19.9,12.8
		c4.5-0.6,8.3-1.3,12.2-2.6c8.3-1.3,22.5-2.6,35.9-16.7l7.7-7.7c4.5-3.2,9-6.4,12.2-11.6c1.3-2.6,2.6-3.2,4.5-7.1
		c1.9-3.9,4.5-7.7,7.1-10.9c0.6-1.3,1.3-1.9,2.6-3.2c0.6-1.3,1.9-2.6,2.6-3.2c1.3-1.9,3.9-1.3,7.1,1.3
		C681.9,882.7,681.9,885.3,680.6,887.8z"/>
	<path class="st1" d="M998.5,776.8c0,7.7,0.6,15.4,0,23.7l-1.9,7.7l-2.6,8.3c-0.6,7.7-1.9,17.3-9,23.7c-2.6,2.6-3.9,5.1-5.1,10.9
		c-0.6,1.9-1.3,3.9-1.9,4.5c-1.3,7.1-3.2,11.6-6.4,14.1c-1.9,1.3-2.6,1.9-3.9,3.2c-1.3,1.9-3.2,3.9-4.5,4.5
		c-3.2,1.9-6.4,5.1-11.6,11.6c-3.2,3.9-3.9,3.9-7.1,5.1c-2.6,1.3-5.8,1.9-9,4.5c-3.2,1.3-5.8,3.2-11.6,6.4
		c-5.1,3.9-10.3,7.1-13.5,7.1c-4.5,1.9-7.1,2.6-13.5,5.8c-8.3,3.2-14.1,5.8-26.3,6.4c-1.9,0-3.9,0-6.4,0.6c-4.5,0.6-9,1.3-14.8,0.6
		c-3.9,0-7.1,0-9.6,0.6c-5.8,0.6-10.3,0.6-19.9-1.9c-2.6-0.6-6.4-1.3-10.3-1.3c-6.4-0.6-9-0.6-13.5-2.6c-6.4,0-18.6-5.1-24.4-9
		c-2.6,0-5.1,1.3-7.1,3.2c-2.6,3.2-3.9,5.8-6.4,10.9c-7.7,12.2-17.3,21.2-30.2,28.9c-9,5.8-12.2,6.4-18,3.2
		c-2.6-1.3-5.8-0.6-7.7-0.6h-1.9c-14.1-1.9-25.7-10.3-30.2-21.8c-3.2-8.3-5.8-18-5.8-28.2c0-2.6,0.6-5.1,0.6-9.6v-9.6
		c0-1.9,0.6-3.9,2.6-8.3c1.9-4.5,2.6-7.1,2.6-9.6c0-7.7,2.6-15.4,5.8-22.5c0.6-2.6,1.3-3.9,3.2-8.3c1.3-3.9,2.6-7.7,4.5-11.6
		c1.9-3.2,3.2-5.1,4.5-10.3c0.6-1.9,1.3-4.5,2.6-7.7c3.2-8.3,5.8-15.4,6.4-23.1c0-1.9,0.6-4.5,1.9-7.1l0.6-2.6
		c1.9-2.6,2.6-4.5,5.1-7.7c3.9-7.1,5.1-9.6,6.4-16.7c0.6-3.2,1.9-5.1,3.2-7.7c3.9-5.1,7.1-9,9-13.5c4.5-7.7,7.1-8.3,12.2-6.4
		c-0.6,0,0,0,1.9,3.2c1.3,1.3,1.9,1.9,2.6,3.2c4.5,1.9,3.2,12.2-7.7,42.4c-11.6,18-15.4,27-19.3,35.9c-2.6,6.4-5.1,12.2-9.6,19.3
		c-3.9,5.8-12.8,24.4-13.5,29.5c0,7.1-3.2,13.5-6.4,20.5c-1.3,3.2-3.2,6.4-3.9,9c0,14.8,0,16.7,0.6,32.1c0,3.9,2.6,9,5.1,12.8
		c9,13.5,24.4,13.5,37.9,10.9c3.2-1.3,5.8-3.9,9-7.7l5.8-7.7c3.9-3.9,7.7-8.3,10.3-14.8c3.2-5.8,1.3-9.6-5.8-14.8
		c0,0-0.6-1.3-3.2-4.5c-0.6-1.3-1.3-1.9-1.9-2.6c-10.9-9-15.4-22.5-14.8-41.1c-1.3-5.1,1.3-10.3,7.7-13.5c1.3-0.6,1.9-0.6,3.9-1.9
		c1.3,0,3.2-0.6,4.5-1.3c3.2-0.6,5.1,0,7.7,1.3c9.6,5.1,14.1,10.3,14.8,18.6c0,3.2,1.3,5.8,4.5,10.3c2.6,3.9,3.9,5.8,3.9,9
		c-0.6,7.1-0.6,13.5,0,19.3c0,2.6,1.3,4.5,4.5,6.4c9,5.1,22.5,10.3,31.4,11.6c4.5,2.6,10.9,1.9,16,1.9c3.9,0,7.7-0.6,11.6,0
		c10.9,1.3,12.2,3.9,39.8-3.9c14.8-2.6,16.7-3.2,31.4-7.7c0.6-0.6,0.6-0.6,2.6-1.3c2.6-0.6,7.1-1.3,8.3-4.5
		c3.9-2.6,6.4-4.5,14.1-8.3c7.1-3.2,15.4-7.7,19.3-12.8c1.9-3.2,3.9-4.5,3.9-9c0.6-1.3,1.3-2.6,3.9-4.5l1.3-1.3
		c6.4-3.9,9.6-9,14.8-20.5c0.6-1.9,1.9-3.9,2.6-5.1c1.3-3.2,1.9-5.8,3.9-12.2c1.9-4.5,3.2-10.3,5.1-14.1c1.3-1.3,1.3-3.2,1.3-5.8
		c0.6-1.3,0.6-2.6,0.6-3.2v-2.6v-5.1c3.2-7.1,3.2-11.6,1.3-21.2c-2.6-10.9-5.1-18-8.3-21.8c-9-13.5-14.8-15.4-19.3-16.7
		c-1.9-0.6-2.6-0.6-3.9-1.9c-1.9-1.3-4.5-1.9-6.4-1.9c-2.6-0.6-1.9-0.6-3.9-1.9c-8.3,0-9.6,0-24.4-2.6c-5.8,0-12.2,0-18.6,4.5
		c-8.3,1.3-12.8,7.1-17.3,12.8c-1.9,2.6-3.9,5.8-6.4,7.7c-3.9,4.5-9,2.6-10.3-4.5c-0.6,0-0.6-1.3-0.6-2.6
		c5.8-10.3,10.9-16,14.1-18.6c1.9-0.6,3.2-1.3,6.4-3.2c3.9-1.9,6.4-3.9,9.6-3.9l11.6-1.9c5.1-0.6,9.6-1.9,15.4-1.9
		c5.1-1.3,6.4-1.3,11.6,0.6c2.6,0.6,3.9,0.6,5.1,1.3c5.1,0,7.1,0.6,12.2,3.2c3.2,1.9,5.8,3.2,9,4.5h-0.6l15.4,8.3
		c5.1,3.9,9,11.6,12.8,18.6c3.2,5.8,4.5,8.3,7.1,11.6c1.3,1.3,1.3,5.8,0.6,5.1V776.8z M757.8,882.7v-2.6c0.6-1.9,0-3.2-0.6-5.8
		c-0.6-2.6-0.6-3.2-0.6-3.9c-0.6-8.3-1.9-10.9-4.5-14.1c-5.8-5.1-15.4-7.7-15.4-1.9c0,1.9,0,3.2,1.3,5.1c0,1.3,0.6,1.9,0.6,3.9v5.1
		c0,3.2,0,4.5,1.3,7.1c0.6-0.6,1.9,1.3,5.1,6.4c3.2,5.1,4.5,6.4,8.3,9.6C758.5,890.4,757.8,888.5,757.8,882.7z"/>
</g>
</svg>
